{"title":"Pompeii (2014) 1080p x264 AAC 2.0 eXiLiO","uid":10094034,"size":3995094232,"categoryP":"video","categoryS":"hd___movies","magnet":"?xt=urn:btih:a83cf7ac934b0ed23ae1601dc6b1be0af992328f&amp;dn=Pompeii+%282014%29+1080p+x264+AAC+2.0+eXiLiO&amp;tr=udp%3A%2F%2Ftracker.openbittorrent.com%3A80&amp;tr=udp%3A%2F%2Fopen.demonii.com%3A1337&amp;tr=udp%3A%2F%2Ftracker.coppersurfer.tk%3A6969&amp;tr=udp%3A%2F%2Fexodus.desync.com%3A6969","seeders":1,"leechers":0,"uploader":null,"files":-1,"time":1399252457,"description":"Pompeii (2014) 1080p x264 AAC 2.0 eXiLiO\n\n\nSynopsis-\n\nPaul W.S. Anderson directs this period disaster film centered on the story of a Pompeii gladiator who races to save his true love as Mount Vesuvius prepares to erupt in A.D. 79. After rising out of slavery to become a gladiator, Milo (Kit Harrington) falls for radiant merchant's daughter Cassia (Emily Browning), who is being coerced into marrying a nefarious Roman Senator. Meanwhile, as the lava starts to flow, Milo must escape the arena and rescue Cassia before they are both turned to ash. CarrieAnne Moss, Adewa Akinnuoye-Agbaje, Jared Harris, and Kiefer Sutherland co-star.\n~ Jason Buchanan, Rovi\n\nTMDb: http://www.themoviedb.org/movie/76649-pompeii\n\n\nCast-\n\nKit Harington ... Milo\nEmily Browning ... Cassia\nKiefer Sutherland ... Corvus\nCarrie-Anne Moss ... Aurelia\nAdewale Akinnuoye-Agbaje ... Atticus\nJessica Lucas ... Ariadne\n\n\nVideo-\n\nFormat                                   : AVC\nFormat/Info                              : Advanced Video Codec\nFormat profile                           : &lt;a class=&quot;__cf_email__&quot; href=&quot;/cdn-cgi/l/email-protection&quot; data-cfemail=&quot;0a42636d624a463e243a&quot;&gt;[email&amp;#160;protected]&lt;/a&gt;&lt;script cf-hash='f9e31' type=&quot;text/javascript&quot;&gt;\n/* &lt;![CDATA[ */!function(){try{var t=&quot;currentScript&quot;in document?document.currentScript:function(){for(var t=document.getElementsByTagName(&quot;script&quot;),e=t.length;e--;)if(t[e].getAttribute(&quot;cf-hash&quot;))return t[e]}();if(t&amp;&amp;t.previousSibling){var e,r,n,i,c=t.previousSibling,a=c.getAttribute(&quot;data-cfemail&quot;);if(a){for(e=&quot;&quot;,r=parseInt(a.substr(0,2),16),n=2;a.length-n;n+=2)i=parseInt(a.substr(n,2),16)^r,e+=String.fromCharCode(i);e=document.createTextNode(e),c.parentNode.replaceChild(e,c)}}}catch(u){}}();/* ]]&gt; */&lt;/script&gt;\nDuration                                 : 1h 44mn\nBit rate                                 : 5 120 Kbps\nWidth                                    : 1 920 pixels\nHeight                                   : 800 pixels\nDisplay aspect ratio                     : 2.40:1\nFrame rate mode                          : Variable\nFrame rate                               : 23.976 fps\nScan type                                : Progressive\nStream size                              : 3.60 GiB (97%)\n\n\nAudio-\n\nFormat                                   : AAC\nFormat/Info                              : Advanced Audio Codec\nDuration                                 : 1h 44mn\nBit rate mode                            : Variable\nBit rate                                 : 160 Kbps\nMaximum bit rate                         : 276 Kbps\nChannel(s)                               : 2 channels\nChannel positions                        : Front: L R\nSampling rate                            : 48.0 KHz\nStream size                              : 120 MiB (3%)\nLanguage                                 : English\n\n\nScreens-\n &lt;a href=&quot;\nhttp://bayimg.com/fAnpJAAFP&quot; rel=&quot;nofollow&quot; target=&quot;_NEW&quot;&gt;\nhttp://bayimg.com/fAnpJAAFP&lt;/a&gt; &lt;a href=&quot;\nhttp://bayimg.com/FAnpNAaFp&quot; rel=&quot;nofollow&quot; target=&quot;_NEW&quot;&gt;\nhttp://bayimg.com/FAnpNAaFp&lt;/a&gt; &lt;a href=&quot;\nhttp://bayimg.com/FaNpPaaFp&quot; rel=&quot;nofollow&quot; target=&quot;_NEW&quot;&gt;\nhttp://bayimg.com/FaNpPaaFp&lt;/a&gt; &lt;a href=&quot;\nhttp://bayimg.com/GanPDaafP&quot; rel=&quot;nofollow&quot; target=&quot;_NEW&quot;&gt;\nhttp://bayimg.com/GanPDaafP&lt;/a&gt; &lt;a href=&quot;\nhttp://bayimg.com/gAnPEaaFp&quot; rel=&quot;nofollow&quot; target=&quot;_NEW&quot;&gt;\nhttp://bayimg.com/gAnPEaaFp&lt;/a&gt; &lt;a href=&quot;\nhttp://bayimg.com/GAnpMaAFP&quot; rel=&quot;nofollow&quot; target=&quot;_NEW&quot;&gt;\nhttp://bayimg.com/GAnpMaAFP&lt;/a&gt; &lt;a href=&quot;\nhttp://bayimg.com/gAnpNaafp&quot; rel=&quot;nofollow&quot; target=&quot;_NEW&quot;&gt;\nhttp://bayimg.com/gAnpNaafp&lt;/a&gt;","torrent":{"xt":"urn:btih:a83cf7ac934b0ed23ae1601dc6b1be0af992328f","amp;dn":"Pompeii+%282014%29+1080p+x264+AAC+2.0+eXiLiO","amp;tr":["udp%3A%2F%2Ftracker.openbittorrent.com%3A80","udp%3A%2F%2Fopen.demonii.com%3A1337","udp%3A%2F%2Ftracker.coppersurfer.tk%3A6969","udp%3A%2F%2Fexodus.desync.com%3A6969"],"infoHash":"a83cf7ac934b0ed23ae1601dc6b1be0af992328f","infoHashBuffer":{"type":"Buffer","data":[168,60,247,172,147,75,14,210,58,225,96,29,198,177,190,10,249,146,50,143]},"announce":[],"urlList":[]}}